<svg width="138" height="28" viewBox="0 0 138 28" fill="none" xmlns="http://www.w3.org/2000/svg">
<g clip-path="url(#clip0_102_9)">
<path d="M27.811 15.4947L20.3623 19.5678L16.2893 27.0164L12.2163 19.5678L4.76758 15.4947L12.2163 11.4217L16.2893 3.97302L20.3623 11.4217L27.811 15.4947Z" fill="#5458DC"/>
<path d="M9.53521 4.3703L6.45299 5.91525L4.7676 8.74061L3.08222 5.91525L0 4.3703L3.08222 2.82537L4.7676 0L6.45299 2.82537L9.53521 4.3703Z" fill="#5458DC"/>
</g>
<path d="M46.4494 24.4124C44.948 24.4124 43.6112 24.1553 42.4389 23.6411C41.2666 23.127 40.3411 22.4277 39.6624 21.5434C38.9837 20.6384 38.6033 19.6307 38.521 18.5201H43.7346C43.7963 19.1165 44.0739 19.5998 44.5675 19.97C45.0611 20.3402 45.6678 20.5253 46.3877 20.5253C47.0458 20.5253 47.5497 20.4019 47.8993 20.1551C48.2695 19.8878 48.4546 19.5484 48.4546 19.1371C48.4546 18.6435 48.1975 18.2836 47.6834 18.0573C47.1692 17.8105 46.3363 17.5432 45.1845 17.2552C43.9505 16.9673 42.9222 16.6691 42.0996 16.3606C41.2769 16.0315 40.5674 15.5277 39.9709 14.849C39.3745 14.1497 39.0763 13.2139 39.0763 12.0416C39.0763 11.0545 39.3437 10.1598 39.8784 9.35772C40.4337 8.53506 41.2358 7.88721 42.2847 7.41419C43.3541 6.94116 44.619 6.70464 46.0792 6.70464C48.2387 6.70464 49.9354 7.23937 51.1694 8.30883C52.4239 9.37828 53.1438 10.7974 53.3289 12.5661H48.4546C48.3723 11.9697 48.105 11.4966 47.6525 11.147C47.2206 10.7974 46.6448 10.6226 45.9249 10.6226C45.3079 10.6226 44.8349 10.746 44.5058 10.9928C44.1768 11.219 44.0122 11.5378 44.0122 11.9491C44.0122 12.4427 44.2693 12.8129 44.7835 13.0597C45.3182 13.3065 46.1409 13.5533 47.2515 13.8001C48.5266 14.1291 49.5652 14.4582 50.3673 14.7873C51.1694 15.0958 51.8686 15.6099 52.4651 16.3298C53.0821 17.029 53.4008 17.9751 53.4214 19.1679C53.4214 20.1757 53.1335 21.0806 52.5576 21.8827C52.0023 22.6642 51.1899 23.2812 50.1205 23.7337C49.0716 24.1861 47.8479 24.4124 46.4494 24.4124Z" fill="#24292E"/>
<path d="M66.2431 19.6924V24.1656H63.5592C61.6465 24.1656 60.1554 23.7028 59.0859 22.7773C58.0165 21.8313 57.4818 20.2991 57.4818 18.1807V11.3321H55.384V6.95144H57.4818V2.75588H62.7571V6.95144H66.2122V11.3321H62.7571V18.2424C62.7571 18.7566 62.8805 19.1268 63.1273 19.353C63.3741 19.5793 63.7854 19.6924 64.3612 19.6924H66.2431Z" fill="#24292E"/>
<path d="M85.4085 15.2809C85.4085 15.7745 85.3776 16.2886 85.3159 16.8233H73.3771C73.4593 17.8928 73.7987 18.7155 74.3951 19.2913C75.0121 19.8466 75.7628 20.1243 76.6471 20.1243C77.9634 20.1243 78.8786 19.569 79.3928 18.4584H85.0074C84.7195 19.5895 84.195 20.6076 83.4341 21.5125C82.6937 22.4174 81.7579 23.127 80.6268 23.6411C79.4956 24.1553 78.2308 24.4124 76.8322 24.4124C75.1458 24.4124 73.6444 24.0525 72.3282 23.3326C71.0119 22.6128 69.9836 21.5845 69.2432 20.2477C68.5028 18.9108 68.1326 17.3478 68.1326 15.5585C68.1326 13.7692 68.4925 12.2062 69.2124 10.8694C69.9528 9.53253 70.9811 8.50421 72.2973 7.78438C73.6136 7.06456 75.1252 6.70464 76.8322 6.70464C78.4981 6.70464 79.9789 7.05427 81.2746 7.75353C82.5703 8.45279 83.578 9.45027 84.2979 10.746C85.0383 12.0416 85.4085 13.5533 85.4085 15.2809ZM80.0098 13.8926C80.0098 12.9877 79.7013 12.2679 79.0843 11.7331C78.4673 11.1984 77.696 10.9311 76.7705 10.9311C75.8862 10.9311 75.1355 11.1881 74.5185 11.7023C73.9221 12.2165 73.5519 12.9466 73.4079 13.8926H80.0098Z" fill="#24292E"/>
<path d="M93.4667 1.33679V24.1656H88.1914V1.33679H93.4667Z" fill="#24292E"/>
<path d="M102.565 1.33679V24.1656H97.2897V1.33679H102.565Z" fill="#24292E"/>
<path d="M105.339 15.5277C105.339 13.7589 105.668 12.2062 106.326 10.8694C107.005 9.53253 107.92 8.50421 109.072 7.78438C110.224 7.06456 111.509 6.70464 112.928 6.70464C114.142 6.70464 115.201 6.95144 116.106 7.44503C117.031 7.93863 117.741 8.58648 118.234 9.38857V6.95144H123.51V24.1656H118.234V21.7285C117.72 22.5305 117 23.1784 116.075 23.672C115.17 24.1656 114.111 24.4124 112.897 24.4124C111.499 24.4124 110.224 24.0525 109.072 23.3326C107.92 22.5922 107.005 21.5536 106.326 20.2168C105.668 18.8594 105.339 17.2964 105.339 15.5277ZM118.234 15.5585C118.234 14.2423 117.864 13.2036 117.124 12.4427C116.404 11.6817 115.519 11.3012 114.471 11.3012C113.422 11.3012 112.527 11.6817 111.787 12.4427C111.067 13.1831 110.707 14.2114 110.707 15.5277C110.707 16.8439 111.067 17.8928 111.787 18.6743C112.527 19.4353 113.422 19.8158 114.471 19.8158C115.519 19.8158 116.404 19.4353 117.124 18.6743C117.864 17.9134 118.234 16.8748 118.234 15.5585Z" fill="#24292E"/>
<path d="M132.601 9.82046C133.218 8.87441 133.99 8.13401 134.915 7.59928C135.841 7.04399 136.869 6.76634 138 6.76634V12.3501H136.55C135.234 12.3501 134.247 12.6381 133.588 13.2139C132.93 13.7692 132.601 14.7564 132.601 16.1755V24.1656H127.326V6.95144H132.601V9.82046Z" fill="#24292E"/>
<defs>
<clipPath id="clip0_102_9">
<rect width="27.811" height="27.0164" fill="white"/>
</clipPath>
</defs>
</svg>
